<?xml version="1.0" standalone="no"?>
<!DOCTYPE svg PUBLIC "-//W3C//DTD SVG 20010904//EN"
 "http://www.w3.org/TR/2001/REC-SVG-20010904/DTD/svg10.dtd">
<svg version="1.0" xmlns="http://www.w3.org/2000/svg"
 width="512.000000pt" height="512.000000pt" viewBox="0 0 512.000000 512.000000"
 preserveAspectRatio="xMidYMid meet">

<g transform="translate(0.000000,512.000000) scale(0.100000,-0.100000)"
fill="#000000" stroke="none">
<path d="M1388 4537 c-553 -320 -1021 -593 -1038 -605 -63 -47 -60 23 -60
-1276 0 -763 3 -1187 10 -1191 5 -3 194 101 420 231 l410 236 2 727 c3 725 3
726 24 756 15 20 217 142 640 387 l619 357 0 477 c0 310 -4 478 -10 480 -5 2
-463 -259 -1017 -579z"/>
<path d="M2705 5108 c-3 -7 -4 -224 -3 -481 l3 -468 618 -357 c428 -247 625
-366 640 -387 22 -30 22 -30 27 -757 l5 -728 408 -235 c224 -130 412 -233 417
-230 6 4 10 435 10 1191 0 1301 4 1228 -61 1277 -35 26 -2043 1187 -2054 1187
-3 0 -8 -6 -10 -12z"/>
<path d="M2067 3625 c-269 -155 -488 -287 -488 -291 0 -5 221 -136 491 -292
l490 -284 479 277 c264 152 487 282 496 289 15 11 -50 51 -475 297 -271 156
-495 285 -499 286 -3 0 -226 -126 -494 -282z"/>
<path d="M1420 2501 l0 -568 493 -285 c270 -157 495 -283 500 -281 4 2 7 257
7 567 0 524 -1 564 -17 578 -27 23 -959 558 -972 558 -8 0 -11 -150 -11 -569z"/>
<path d="M3203 2796 c-260 -150 -479 -279 -488 -286 -13 -11 -15 -83 -15 -576
0 -309 3 -565 8 -567 4 -2 229 124 500 280 l492 285 0 569 c0 449 -3 569 -12
569 -7 -1 -226 -124 -485 -274z"/>
<path d="M872 1451 c-216 -125 -400 -235 -409 -244 -14 -14 -13 -16 8 -30 13
-8 477 -277 1031 -596 990 -571 1008 -581 1060 -581 52 1 79 16 1078 593 564
326 1025 598 1025 604 0 10 -761 459 -811 480 -6 2 -290 -157 -630 -353 -564
-326 -623 -358 -664 -358 -41 0 -101 33 -663 357 -339 196 -621 357 -625 356
-4 0 -184 -103 -400 -228z"/>
</g>
</svg>
